HIERARCHY
ROOT Hips
{
	OFFSET -3.958830 18.904000 13.208200
	CHANNELS 6 Xposition Yposition Zposition Zrotation Yrotation Xrotation 
	JOINT LHipJoint
	{
		OFFSET 0.000000 0.000000 0.000000
		CHANNELS 3 Zrotation Yrotation Xrotation
		JOINT LeftUpLeg
		{
			OFFSET 1.800000 -1.400000 0.085000
			CHANNELS 3 Zrotation Yrotation Xrotation
			JOINT LeftLeg
			{
				OFFSET 2.215000 -6.000000 0.000000
				CHANNELS 3 Zrotation Yrotation Xrotation
				JOINT LeftFoot
				{
					OFFSET 2.500000 -6.900000 0.000000
					CHANNELS 3 Zrotation Yrotation Xrotation
					JOINT LeftToeBase
					{
						OFFSET 0.200000 -0.500000 1.950000
						CHANNELS 3 Zrotation Yrotation Xrotation
						End Site
						{
							OFFSET 0.000000 0.000000 0.000000
						}
					}
				}
			}
		}
	}
	JOINT RHipJoint
	{
		OFFSET 0.000000 0.000000 0.000000
		CHANNELS 3 Zrotation Yrotation Xrotation
		JOINT RightUpLeg
		{
			OFFSET -1.800000 -1.400000 0.085000
			CHANNELS 3 Zrotation Yrotation Xrotation
			JOINT RightLeg
			{
				OFFSET -2.215000 -6.000000 0.000000
				CHANNELS 3 Zrotation Yrotation Xrotation
				JOINT RightFoot
				{
					OFFSET -2.500000 -6.900000 0.000000
					CHANNELS 3 Zrotation Yrotation Xrotation
					JOINT RightToeBase
					{
						OFFSET -0.200000 -0.500000 1.950000
						CHANNELS 3 Zrotation Yrotation Xrotation
						End Site
						{
							OFFSET 0.000000 0.000000 0.000000
						}
					}
				}
			}
		}
	}
	JOINT LowerBack
	{
		OFFSET 0.000000 0.000000 0.000000
		CHANNELS 3 Zrotation Yrotation Xrotation
		JOINT Spine
		{
			OFFSET -0.087000 1.940000 -0.288900
			CHANNELS 3 Zrotation Yrotation Xrotation
			JOINT Spine1
			{
				OFFSET 0.000000 1.950000 0.060000
				CHANNELS 3 Zrotation Yrotation Xrotation
				JOINT Neck
				{
					OFFSET 0.000000 0.000000 0.000000
					CHANNELS 3 Zrotation Yrotation Xrotation
					JOINT Neck1
					{
						OFFSET 0.000000 1.600000 0.340000
						CHANNELS 3 Zrotation Yrotation Xrotation
						JOINT Head
						{
							OFFSET 0.000000 1.667000 -0.240000
							CHANNELS 3 Zrotation Yrotation Xrotation
							End Site
							{
								OFFSET 0.000000 0.000000 0.000000
							}
						}
					}
				}
				JOINT LeftShoulder
				{
					OFFSET 0.000000 0.000000 0.000000
					CHANNELS 3 Zrotation Yrotation Xrotation
					JOINT LeftArm
					{
						OFFSET 2.700000 1.550000 -0.730000
						CHANNELS 3 Zrotation Yrotation Xrotation
						JOINT LeftForeArm
						{
							OFFSET 5.450000 0.000000 0.000000
							CHANNELS 3 Zrotation Yrotation Xrotation
							JOINT LeftHand
							{
								OFFSET 3.450000 0.000000 0.000000
								CHANNELS 3 Zrotation Yrotation Xrotation
								JOINT LeftHandIndex1
								{
									OFFSET 0.750000 0.000000 0.000000
									CHANNELS 3 Zrotation Yrotation Xrotation
									End Site
									{
										OFFSET 0.000000 0.000000 0.000000
									}
								}
							}
						}
					}
				}
				JOINT RightShoulder
				{
					OFFSET 0.000000 0.000000 0.000000
					CHANNELS 3 Zrotation Yrotation Xrotation
					JOINT RightArm
					{
						OFFSET -2.700000 1.550000 -0.730000
						CHANNELS 3 Zrotation Yrotation Xrotation
						JOINT RightForeArm
						{
							OFFSET -5.450000 0.000000 0.000000
							CHANNELS 3 Zrotation Yrotation Xrotation
							JOINT RightHand
							{
								OFFSET -3.450000 0.000000 0.000000
								CHANNELS 3 Zrotation Yrotation Xrotation
								JOINT RightHandIndex1
								{
									OFFSET -0.750000 0.000000 0.000000
									CHANNELS 3 Zrotation Yrotation Xrotation
									End Site
									{
										OFFSET 0.000000 0.000000 0.000000
									}
								}
							}
						}
					}
				}
			}
		}
	}
}
MOTION
Frames: 4
Frame Time: 0.016667
-2.147610 15.619640 -2.575970 -6.389535 -12.620799 -0.298021 -16.452720 10.164865 7.278353 35.728017 -3.601625 -49.944642 -22.699989 32.451033 59.886319 1.605769 15.006578 -0.411618 0.591440 0.138300 0.525600 17.885125 -7.175987 2.697936 -25.912360 4.528404 -38.158728 6.303561 -15.926803 56.989227 -1.433776 -9.360217 1.276686 -0.004700 -0.008370 0.245090 -1.490757 -4.296083 -10.252566 -6.997575 6.609434 34.214155 12.266243 4.263151 -0.659549 -0.179264 1.355856 -13.234657 -0.380814 1.496432 41.029716 0.751310 4.340320 -18.829090 -25.072212 -20.139998 6.371070 -29.629173 -3.936990 -4.136380 0.945077 -20.117624 -1.437956 -3.513257 2.858772 0.856530 -0.073110 0.153070 0.184840 27.137335 22.276444 9.436142 34.330060 -1.028573 -14.900088 -11.832943 37.319505 -4.359143 1.679874 -1.384791 -0.131230 0.176450 -0.073560 -0.401360 
-2.005740 15.662310 -2.492220 -6.484858 -13.706548 -0.490318 -16.434774 10.250571 7.166561 34.559764 -2.732197 -48.346326 -23.545947 32.936609 58.875119 1.669013 14.880027 -0.401985 0.650390 0.213410 0.589080 17.860850 -7.423693 2.585924 -26.403939 4.692967 -36.805914 6.244879 -14.956382 54.551568 -1.354202 -8.862205 1.407311 -0.008280 -0.099070 0.286970 -1.467687 -3.908332 -10.149466 -7.005465 7.055351 31.854655 12.160039 4.714270 -0.321978 0.226920 3.333506 -13.240925 3.437001 -0.008848 43.932578 -0.460150 4.919670 -18.522350 -24.823845 -20.098179 7.067234 -36.086335 -2.775110 -4.564567 -1.668525 -18.426010 -1.289025 -3.473570 2.922439 0.853350 -0.101680 0.228850 0.188220 25.899261 21.564227 8.824605 39.271067 -0.180538 -17.492091 -7.046026 44.697881 -4.476171 1.642125 -1.423110 -0.050450 0.096270 -0.134930 -0.399240 
-1.844980 15.749390 -2.402540 -6.979592 -13.892790 0.215548 -16.366941 10.375388 7.054277 32.596256 -2.120219 -47.877398 -22.809399 32.275269 58.191786 1.617261 14.760928 -0.355004 0.557990 0.077750 0.552660 17.861781 -7.796994 2.417368 -26.565774 4.679082 -34.613157 6.850395 -13.845325 49.875237 -1.107312 -8.077562 1.640183 -0.064810 -0.050180 0.275910 -1.534726 -3.436533 -9.984869 -5.970949 6.676573 29.170250 11.492960 5.147196 -1.027402 0.625195 4.375077 -12.626180 5.693022 -1.243472 43.798177 -1.034930 4.270200 -15.556240 -25.468067 -18.125021 7.051030 -41.653644 -0.310351 -5.293487 -4.457493 -16.654639 -1.218971 -3.544158 2.897011 0.834970 -0.062720 0.166830 0.158180 25.628378 19.330482 8.158505 42.307253 -0.557524 -19.567380 1.668684 54.070809 -2.684099 1.615745 -1.480992 -0.097880 0.097010 -0.084550 -0.414010 
-1.625230 15.883110 -2.313640 -7.406579 -13.933267 0.813498 -16.222748 10.637849 6.776462 28.667443 -2.373126 -47.486493 -19.868253 30.244003 58.642006 1.659527 14.425142 -0.215078 0.485380 0.041990 0.452740 17.881411 -8.338639 2.278108 -26.960196 4.333302 -31.981151 7.635226 -12.460131 43.489192 -0.827736 -7.074674 2.018196 -0.126680 0.018090 0.267870 -1.707893 -2.860074 -9.760683 -3.878249 6.119703 26.801424 10.318065 5.499015 -1.177464 1.141547 4.697410 -12.760292 6.815929 -1.910946 42.989150 -1.494870 3.586440 -11.647740 -24.551651 -16.408245 7.226997 -47.861247 2.448128 -6.767347 -6.396034 -15.139432 -1.206928 -3.589831 2.910193 0.721460 -0.005550 0.122590 0.197290 23.398568 17.887114 8.285829 44.808650 -1.019328 -20.372270 12.813089 63.294086 1.558530 1.668695 -1.612110 -0.055950 0.084340 -0.089570 -0.338620 
